<svg xmlns="http://www.w3.org/2000/svg" xmlns:xlink="http://www.w3.org/1999/xlink" width="1080" zoomAndPan="magnify" viewBox="0 0 810 809.999993" height="1080" preserveAspectRatio="xMidYMid meet" version="1.0"><defs><g/></defs><g fill="#b40000" fill-opacity="1"><g transform="translate(236.403804, 417.752401)"><g><path d="M 14.203125 -4.765625 C 13.222656 -4.242188 12.578125 -3.90625 12.265625 -3.75 C 11.054688 -3.144531 10.113281 -2.765625 9.4375 -2.609375 C 6.851562 -1.929688 4.648438 -2.328125 2.828125 -3.796875 C 1.015625 -5.273438 0.1875 -7.34375 0.34375 -10 C 0.570312 -14.769531 2.878906 -18.597656 7.265625 -21.484375 C 9.765625 -22.992188 12.378906 -23.710938 15.109375 -23.640625 C 18.066406 -23.410156 19.582031 -21.859375 19.65625 -18.984375 L 19.65625 -15.90625 C 19.507812 -9.09375 19.394531 -3.941406 19.3125 -0.453125 C 19.164062 2.953125 18.484375 6.25 17.265625 9.4375 C 16.210938 11.9375 14.394531 13.445312 11.8125 13.96875 C 9.238281 14.5 7.003906 13.972656 5.109375 12.390625 C 2.691406 10.335938 1.519531 7.757812 1.59375 4.65625 C 1.59375 3.820312 1.816406 3.117188 2.265625 2.546875 C 2.722656 1.984375 3.296875 1.703125 3.984375 1.703125 C 5.648438 1.554688 6.59375 2.425781 6.8125 4.3125 C 6.96875 6.207031 7.425781 7.457031 8.1875 8.0625 C 10 9.65625 11.4375 9.351562 12.5 7.15625 C 12.5 7.082031 12.5 7.046875 12.5 7.046875 L 12.609375 6.8125 C 13.367188 4.84375 13.898438 0.984375 14.203125 -4.765625 Z M 14.203125 -18.296875 C 11.628906 -18.066406 9.429688 -16.929688 7.609375 -14.890625 C 6.171875 -12.992188 5.53125 -11.175781 5.6875 -9.4375 C 5.757812 -7.84375 6.550781 -7.273438 8.0625 -7.734375 C 10.1875 -8.253906 11.664062 -9.390625 12.5 -11.140625 C 13.40625 -12.804688 13.972656 -15.191406 14.203125 -18.296875 Z M 14.203125 -18.296875 "/></g></g></g><g fill="#b40000" fill-opacity="1"><g transform="translate(277.653962, 417.752401)"><g><path d="M 1.015625 -7.609375 C 0.179688 -11.628906 0.375 -15.113281 1.59375 -18.0625 C 2.726562 -21.09375 4.8125 -23.066406 7.84375 -23.984375 C 8.75 -24.285156 9.695312 -24.320312 10.6875 -24.09375 C 13.789062 -23.257812 15.757812 -21.289062 16.59375 -18.1875 C 17.957031 -12.726562 17.503906 -7.765625 15.234375 -3.296875 C 14.015625 -0.941406 12.171875 0.34375 9.703125 0.5625 C 7.242188 0.789062 5.179688 -0.148438 3.515625 -2.265625 C 2.460938 -3.628906 1.628906 -5.410156 1.015625 -7.609375 Z M 11.8125 -16.25 C 11.8125 -16.320312 11.773438 -16.488281 11.703125 -16.75 C 11.628906 -17.019531 11.554688 -17.234375 11.484375 -17.390625 C 10.722656 -18.984375 9.660156 -19.359375 8.296875 -18.515625 C 7.390625 -17.835938 6.742188 -17.046875 6.359375 -16.140625 C 5.078125 -12.953125 5.304688 -9.65625 7.046875 -6.25 C 7.117188 -5.945312 7.347656 -5.609375 7.734375 -5.234375 C 8.710938 -4.085938 9.65625 -4.160156 10.5625 -5.453125 C 10.789062 -5.828125 10.984375 -6.207031 11.140625 -6.59375 C 12.273438 -9.625 12.5 -12.84375 11.8125 -16.25 Z M 11.8125 -16.25 "/></g></g></g><g fill="#b40000" fill-opacity="1"><g transform="translate(316.176834, 417.752401)"><g><path d="M 1.015625 -7.609375 C 0.179688 -11.628906 0.375 -15.113281 1.59375 -18.0625 C 2.726562 -21.09375 4.8125 -23.066406 7.84375 -23.984375 C 8.75 -24.285156 9.695312 -24.320312 10.6875 -24.09375 C 13.789062 -23.257812 15.757812 -21.289062 16.59375 -18.1875 C 17.957031 -12.726562 17.503906 -7.765625 15.234375 -3.296875 C 14.015625 -0.941406 12.171875 0.34375 9.703125 0.5625 C 7.242188 0.789062 5.179688 -0.148438 3.515625 -2.265625 C 2.460938 -3.628906 1.628906 -5.410156 1.015625 -7.609375 Z M 11.8125 -16.25 C 11.8125 -16.320312 11.773438 -16.488281 11.703125 -16.75 C 11.628906 -17.019531 11.554688 -17.234375 11.484375 -17.390625 C 10.722656 -18.984375 9.660156 -19.359375 8.296875 -18.515625 C 7.390625 -17.835938 6.742188 -17.046875 6.359375 -16.140625 C 5.078125 -12.953125 5.304688 -9.65625 7.046875 -6.25 C 7.117188 -5.945312 7.347656 -5.609375 7.734375 -5.234375 C 8.710938 -4.085938 9.65625 -4.160156 10.5625 -5.453125 C 10.789062 -5.828125 10.984375 -6.207031 11.140625 -6.59375 C 12.273438 -9.625 12.5 -12.84375 11.8125 -16.25 Z M 11.8125 -16.25 "/></g></g></g><g fill="#b40000" fill-opacity="1"><g transform="translate(354.699705, 417.752401)"><g><path d="M 11.8125 -21.8125 L 11.8125 -28.53125 C 11.8125 -29.28125 11.789062 -30.410156 11.75 -31.921875 C 11.71875 -33.441406 11.703125 -34.582031 11.703125 -35.34375 C 11.703125 -35.875 11.851562 -36.519531 12.15625 -37.28125 C 12.613281 -38.257812 13.410156 -38.675781 14.546875 -38.53125 C 15.753906 -38.375 16.507812 -37.765625 16.8125 -36.703125 C 16.96875 -35.941406 17.046875 -35.410156 17.046875 -35.109375 C 17.046875 -25.492188 17.082031 -18.296875 17.15625 -13.515625 C 17.15625 -12.609375 17.347656 -9.691406 17.734375 -4.765625 C 17.734375 -4.546875 17.769531 -4.128906 17.84375 -3.515625 C 17.914062 -2.910156 17.914062 -2.421875 17.84375 -2.046875 C 17.769531 -1.140625 17.425781 -0.457031 16.8125 0 C 16.207031 0.457031 15.453125 0.570312 14.546875 0.34375 C 14.316406 0.269531 13.253906 0.234375 11.359375 0.234375 C 9.460938 0.378906 7.835938 0.300781 6.484375 0 C 3.148438 -0.53125 1.175781 -2.613281 0.5625 -6.25 C -0.113281 -10.789062 0.796875 -14.804688 3.296875 -18.296875 C 5.265625 -21.171875 7.6875 -22.34375 10.5625 -21.8125 Z M 12.265625 -5 C 12.046875 -8.03125 11.9375 -10.832031 11.9375 -13.40625 C 11.9375 -14.46875 11.519531 -15.335938 10.6875 -16.015625 C 9.769531 -16.773438 8.972656 -16.773438 8.296875 -16.015625 C 6.023438 -13.671875 5.191406 -10.679688 5.796875 -7.046875 C 6.023438 -5.679688 6.820312 -5 8.1875 -5 Z M 12.265625 -5 "/></g></g></g><g fill="#b40000" fill-opacity="1"><g transform="translate(393.790763, 417.752401)"><g><path d="M 6.015625 0.234375 L 6.015625 6.59375 C 6.015625 6.96875 6.050781 7.78125 6.125 9.03125 C 6.207031 10.28125 6.210938 11.25 6.140625 11.9375 C 6.140625 12.84375 5.875 13.5625 5.34375 14.09375 C 4.8125 14.695312 4.109375 14.941406 3.234375 14.828125 C 2.367188 14.710938 1.742188 14.273438 1.359375 13.515625 C 1.210938 13.210938 1.0625 12.609375 0.90625 11.703125 C 0.375 -3.828125 0.375 -14.164062 0.90625 -19.3125 C 0.90625 -19.925781 0.941406 -20.382812 1.015625 -20.6875 C 1.242188 -21.75 1.601562 -22.523438 2.09375 -23.015625 C 2.59375 -23.503906 3.375 -23.785156 4.4375 -23.859375 C 8.445312 -24.472656 11.929688 -23.414062 14.890625 -20.6875 C 17.003906 -18.789062 18.0625 -16.210938 18.0625 -12.953125 C 18.144531 -11.359375 17.878906 -9.203125 17.265625 -6.484375 C 16.742188 -4.359375 15.628906 -2.726562 13.921875 -1.59375 C 12.210938 -0.457031 10.453125 0.148438 8.640625 0.234375 Z M 5.5625 -4.890625 C 5.945312 -4.890625 6.535156 -4.90625 7.328125 -4.9375 C 8.117188 -4.976562 8.671875 -5.035156 8.984375 -5.109375 C 10.492188 -5.410156 11.4375 -6.09375 11.8125 -7.15625 C 12.945312 -10.113281 13.140625 -12.726562 12.390625 -15 C 12.003906 -16.289062 11.207031 -17.253906 10 -17.890625 C 8.789062 -18.535156 7.460938 -18.707031 6.015625 -18.40625 C 6.015625 -17.125 5.957031 -14.96875 5.84375 -11.9375 C 5.738281 -8.90625 5.644531 -6.554688 5.5625 -4.890625 Z M 5.5625 -4.890625 "/></g></g></g><g fill="#b40000" fill-opacity="1"><g transform="translate(433.109102, 417.752401)"><g><path d="M 0.453125 -20 C 0.453125 -21.820312 0.429688 -24.472656 0.390625 -27.953125 C 0.359375 -31.441406 0.34375 -34.09375 0.34375 -35.90625 C 0.34375 -36.507812 0.378906 -36.96875 0.453125 -37.28125 C 0.679688 -38.789062 1.550781 -39.546875 3.0625 -39.546875 C 4.425781 -39.546875 5.222656 -38.863281 5.453125 -37.5 C 5.609375 -37.039062 5.6875 -36.4375 5.6875 -35.6875 L 5.6875 -2.5 C 5.53125 -0.832031 4.617188 0 2.953125 0 C 1.441406 -0.15625 0.609375 -1.101562 0.453125 -2.84375 Z M 0.453125 -20 "/></g></g></g><g fill="#b40000" fill-opacity="1"><g transform="translate(460.609207, 417.752401)"><g><path d="M 1.015625 -7.609375 C 0.179688 -11.628906 0.375 -15.113281 1.59375 -18.0625 C 2.726562 -21.09375 4.8125 -23.066406 7.84375 -23.984375 C 8.75 -24.285156 9.695312 -24.320312 10.6875 -24.09375 C 13.789062 -23.257812 15.757812 -21.289062 16.59375 -18.1875 C 17.957031 -12.726562 17.503906 -7.765625 15.234375 -3.296875 C 14.015625 -0.941406 12.171875 0.34375 9.703125 0.5625 C 7.242188 0.789062 5.179688 -0.148438 3.515625 -2.265625 C 2.460938 -3.628906 1.628906 -5.410156 1.015625 -7.609375 Z M 11.8125 -16.25 C 11.8125 -16.320312 11.773438 -16.488281 11.703125 -16.75 C 11.628906 -17.019531 11.554688 -17.234375 11.484375 -17.390625 C 10.722656 -18.984375 9.660156 -19.359375 8.296875 -18.515625 C 7.390625 -17.835938 6.742188 -17.046875 6.359375 -16.140625 C 5.078125 -12.953125 5.304688 -9.65625 7.046875 -6.25 C 7.117188 -5.945312 7.347656 -5.609375 7.734375 -5.234375 C 8.710938 -4.085938 9.65625 -4.160156 10.5625 -5.453125 C 10.789062 -5.828125 10.984375 -6.207031 11.140625 -6.59375 C 12.273438 -9.625 12.5 -12.84375 11.8125 -16.25 Z M 11.8125 -16.25 "/></g></g></g><g fill="#b40000" fill-opacity="1"><g transform="translate(499.132079, 417.752401)"><g><path d="M 5.34375 -21.8125 C 4.207031 -21.8125 3.375 -21.851562 2.84375 -21.9375 C 2.082031 -22.007812 1.472656 -22.328125 1.015625 -22.890625 C 0.566406 -23.460938 0.34375 -24.09375 0.34375 -24.78125 C 0.488281 -26.363281 1.4375 -27.15625 3.1875 -27.15625 C 3.632812 -27.238281 4.390625 -27.203125 5.453125 -27.046875 C 5.523438 -27.503906 5.640625 -28.109375 5.796875 -28.859375 C 5.867188 -29.992188 5.941406 -31.1875 6.015625 -32.4375 C 6.097656 -33.6875 6.175781 -34.882812 6.25 -36.03125 L 6.359375 -36.59375 C 6.441406 -36.96875 6.519531 -37.234375 6.59375 -37.390625 C 7.039062 -38.828125 7.984375 -39.429688 9.421875 -39.203125 C 10.867188 -38.972656 11.59375 -38.101562 11.59375 -36.59375 L 11.140625 -30.234375 C 11.140625 -29.929688 11.117188 -29.457031 11.078125 -28.8125 C 11.035156 -28.164062 11.015625 -27.65625 11.015625 -27.28125 C 11.242188 -27.28125 11.585938 -27.238281 12.046875 -27.15625 C 12.503906 -27.082031 12.84375 -27.046875 13.0625 -27.046875 C 14.65625 -26.816406 15.453125 -25.941406 15.453125 -24.421875 C 15.453125 -22.910156 14.582031 -22.039062 12.84375 -21.8125 L 10.90625 -21.8125 C 10.90625 -21.664062 10.867188 -21.476562 10.796875 -21.25 C 10.722656 -21.019531 10.6875 -20.867188 10.6875 -20.796875 C 10.6875 -19.203125 10.722656 -16.8125 10.796875 -13.625 C 10.867188 -10.445312 10.90625 -8.066406 10.90625 -6.484375 C 10.976562 -5.796875 11.050781 -5.316406 11.125 -5.046875 C 11.207031 -4.785156 11.363281 -4.617188 11.59375 -4.546875 C 11.820312 -4.472656 12.273438 -4.394531 12.953125 -4.3125 C 13.640625 -4.238281 14.703125 -4.203125 16.140625 -4.203125 C 17.953125 -4.203125 18.972656 -3.484375 19.203125 -2.046875 C 19.359375 -1.359375 19.226562 -0.691406 18.8125 -0.046875 C 18.394531 0.585938 17.804688 0.941406 17.046875 1.015625 C 13.410156 1.472656 10.566406 1.054688 8.515625 -0.234375 C 6.628906 -1.285156 5.6875 -3.0625 5.6875 -5.5625 C 5.53125 -9.8125 5.453125 -12.992188 5.453125 -15.109375 C 5.378906 -16.546875 5.34375 -18.78125 5.34375 -21.8125 Z M 5.34375 -21.8125 "/></g></g></g><g fill="#b40000" fill-opacity="1"><g transform="translate(536.291317, 417.752401)"><g><path d="M 7.609375 0.90625 C 3.066406 0.90625 0.566406 -1.140625 0.109375 -5.234375 C 0.109375 -6.066406 0.222656 -6.820312 0.453125 -7.5 C 0.679688 -8.632812 1.515625 -9.203125 2.953125 -9.203125 C 4.316406 -9.054688 5.113281 -8.375 5.34375 -7.15625 L 5.34375 -6.015625 C 5.488281 -4.878906 5.941406 -4.238281 6.703125 -4.09375 C 7.992188 -3.863281 8.976562 -4.128906 9.65625 -4.890625 C 10.414062 -5.867188 10.660156 -6.960938 10.390625 -8.171875 C 10.128906 -9.390625 9.46875 -10.226562 8.40625 -10.6875 C 6.507812 -11.519531 4.992188 -12.351562 3.859375 -13.1875 C 1.742188 -15 0.757812 -16.910156 0.90625 -18.921875 C 1.0625 -20.929688 1.929688 -22.578125 3.515625 -23.859375 C 4.503906 -24.691406 5.847656 -25.109375 7.546875 -25.109375 C 9.253906 -25.109375 10.640625 -24.769531 11.703125 -24.09375 C 13.296875 -23.1875 14.429688 -21.859375 15.109375 -20.109375 C 15.640625 -18.597656 15.222656 -17.578125 13.859375 -17.046875 C 12.492188 -16.359375 11.320312 -16.660156 10.34375 -17.953125 C 10.269531 -18.109375 10.132812 -18.351562 9.9375 -18.6875 C 9.75 -19.03125 9.582031 -19.28125 9.4375 -19.4375 C 9.050781 -19.8125 8.59375 -20.035156 8.0625 -20.109375 C 7.53125 -20.191406 7.078125 -20.078125 6.703125 -19.765625 C 6.328125 -19.460938 6.140625 -19.046875 6.140625 -18.515625 C 6.140625 -17.992188 6.40625 -17.578125 6.9375 -17.265625 C 7.914062 -16.585938 9.164062 -15.832031 10.6875 -15 C 14.925781 -12.957031 16.59375 -9.8125 15.6875 -5.5625 C 15.226562 -3.519531 14.28125 -1.910156 12.84375 -0.734375 C 11.40625 0.429688 9.660156 0.976562 7.609375 0.90625 Z M 7.609375 0.90625 "/></g></g></g></svg>